<svg width="374" height="290" viewBox="0 0 374 290" fill="none" xmlns="http://www.w3.org/2000/svg">
<g filter="url(#filter0_d_4523_1378)">
<path d="M187 25H50V158.608C50 170.096 54.4674 180.946 61.913 187.329C84.4155 206.264 128.097 212.859 157.383 214.987C160.857 215.199 164.167 212.859 165.987 209.03C170.289 199.881 178.065 193.712 187 193.712C195.935 193.712 203.711 199.881 208.013 209.03C209.833 212.859 213.143 215.199 216.617 214.987C245.903 212.646 289.585 206.264 312.087 187.329C319.533 180.946 324 170.309 324 158.608V25H187Z" fill="white"/>
</g>
<defs>
<filter id="filter0_d_4523_1378" x="0" y="0" width="374" height="290" filterUnits="userSpaceOnUse" color-interpolation-filters="sRGB">
<feFlood flood-opacity="0" result="BackgroundImageFix"/>
<feColorMatrix in="SourceAlpha" type="matrix" values="0 0 0 0 0 0 0 0 0 0 0 0 0 0 0 0 0 0 127 0" result="hardAlpha"/>
<feOffset dy="25"/>
<feGaussianBlur stdDeviation="25"/>
<feComposite in2="hardAlpha" operator="out"/>
<feColorMatrix type="matrix" values="0 0 0 0 0 0 0 0 0 0 0 0 0 0 0 0 0 0 0.03 0"/>
<feBlend mode="normal" in2="BackgroundImageFix" result="effect1_dropShadow_4523_1378"/>
<feBlend mode="normal" in="SourceGraphic" in2="effect1_dropShadow_4523_1378" result="shape"/>
</filter>
</defs>
</svg>
